<?xml version="1.0" encoding="utf-8"?>
<!DOCTYPE svg PUBLIC "-//W3C//DTD SVG 1.1//EN" "http://www.w3.org/Graphics/SVG/1.1/DTD/svg11.dtd">
<svg xmlns="http://www.w3.org/2000/svg" version="1.1" id="mb-claim-de" x="0" y="0" width="112" height="28" viewBox="0 0 112 28" enable-background="new 0 0 112 28" xml:space="preserve"><g id="Wortmarke_Vektor_RZ_1_"><rect x="70.8" y="7.16" fill="#FFFFFF" width="4.1" height="1"></rect><path fill="#FFFFFF" d="M2.5 1.36l-0.4 9.5v0.2c0 0.8 0.2 1 1.5 1.1v0.4c-0.9-0.1-1.3-0.1-1.8-0.1s-0.9 0-1.8 0.1v-0.4c1.3-0.1 1.5-0.2 1.5-1.2l0.4-9V1.86c0-0.8-0.3-1-1.5-1.1v-0.5c0.7 0.1 1 0.1 1.5 0.1 0.7 0 1 0 1.7-0.1l3.4 9.3 3.5-9.3c0.8 0.1 1.2 0.1 1.8 0.1 0.5 0 0.8 0 1.5-0.1v0.5c-1.2 0.1-1.5 0.3-1.5 1.1v0.1l0.2 9c0 1 0.2 1.1 1.5 1.2v0.4c-1.2-0.1-1.6-0.1-2.3-0.1 -0.7 0-1.1 0-2.3 0.1v-0.4c1.2-0.1 1.5-0.3 1.5-1.1v-0.1l-0.2-9.5 -3.1 8.1 -0.2 0.6 -0.3 0.7 -0.2 0.7 -0.2 0.6H6.4l-0.2-0.6 -0.3-0.7 -0.2-0.7L5.5 9.46 2.5 1.36zM18.7 12.16c-1.7 0-2.4-1.3-2.4-4.2h5.5c0-2.8-1.2-4.3-3.4-4.3 -2.2 0-3.6 1.8-3.6 4.6 0 2.8 1.4 4.5 3.7 4.5 1.8 0 3-1.1 3.2-3H21C20.8 11.26 20 12.16 18.7 12.16M16.3 7.26c0.2-2.1 0.9-3.2 2.1-3.2 1.2 0 1.8 1 1.9 3.2H16.3zM22.8 4.26v-0.3c1-0.1 1.7-0.2 2.4-0.4 0.1 0.7 0.1 1 0.2 1.5v0.2c0.4-1 1.2-1.7 2.1-1.7s1.6 0.6 1.6 1.5c0 0.5-0.3 0.9-0.8 0.9 -0.4 0-0.8-0.3-0.8-0.6 0 0 0-0.1 0-0.2V4.96 4.86c0-0.3-0.2-0.4-0.6-0.4 -1 0-1.6 1.2-1.6 3v3.8c0 0.8 0.2 0.9 1.3 1v0.4c-1-0.1-1.4-0.1-2-0.1 -0.7 0-1 0-2.1 0.1v-0.4c1.1-0.1 1.3-0.2 1.3-1v-5.8V5.16c0-0.8-0.1-0.9-1.1-0.9L22.8 4.26 22.8 4.26zM36.2 3.46v3h-0.4c-0.3-1.6-1-2.4-2.1-2.4 -1.4 0-2.2 1.5-2.2 4.1 0 2.6 0.7 3.9 2.1 3.9 1.1 0 1.8-0.8 2-2.4H36.4c-0.2 2-1.3 3-2.9 3 -2.1 0-3.6-1.8-3.6-4.5 0-2.7 1.5-4.6 3.6-4.6 0.8 0 1.3 0.2 1.9 0.8l0.5-0.9H36.2L36.2 3.46zM41.6 12.16c-1.7 0-2.4-1.3-2.4-4.2h5.5c0-2.8-1.2-4.3-3.4-4.3s-3.6 1.8-3.6 4.6 1.4 4.5 3.7 4.5c1.8 0 3-1.1 3.2-3H43.9C43.7 11.26 42.9 12.16 41.6 12.16M39.2 7.26c0.2-2.1 0.9-3.2 2.1-3.2 1.2 0 1.8 1 1.9 3.2H39.2zM53.2 10.66v-10.6c-0.9 0.2-1.7 0.4-2.8 0.5v0.3c1.2 0 1.3 0.1 1.3 1.1V5.16c-0.7-1.1-1.2-1.4-2.2-1.4 -2 0-3.3 1.9-3.3 4.5 0 2.6 1.4 4.5 3.4 4.5 1 0 1.8-0.5 2.3-1.5 0.1 0.7 0.1 0.8 0.3 1.5 0.8-0.2 1.1-0.3 2.1-0.4h0.3v-0.3C53.3 11.86 53.2 11.76 53.2 10.66M49.7 12.26c-1.3 0-2-1.4-2-4 0-2.7 0.6-4 2-4 1.4 0 2.1 1.4 2.1 4.1C51.7 10.86 51 12.26 49.7 12.26M59.1 12.16c-1.7 0-2.4-1.3-2.4-4.2h5.5c0-2.8-1.2-4.3-3.4-4.3s-3.6 1.8-3.6 4.6 1.4 4.5 3.7 4.5c1.8 0 3-1.1 3.2-3H61.4C61.2 11.26 60.4 12.16 59.1 12.16M56.7 7.26c0.2-2.1 0.9-3.2 2.1-3.2 1.2 0 1.8 1 1.9 3.2H56.7zM63.7 12.76V9.66H64.1c0.3 1.7 1.1 2.5 2.4 2.5 1.1 0 1.9-0.7 1.9-1.7 0-0.6-0.3-1-1.2-1.5L66.5 8.66l-0.9-0.3c-1.3-0.6-1.8-1.1-1.8-2.2 0-1.5 1.1-2.4 2.8-2.4 0.7 0 1.2 0.2 1.9 0.6l0.3-0.8h0.3v2.8H68.7c-0.2-1.5-0.8-2.2-1.9-2.2 -1 0-1.7 0.7-1.7 1.5 0 0.7 0.3 1 1.9 1.7l0.8 0.3c1.4 0.6 1.9 1.2 1.9 2.3 0 1.5-1.2 2.6-3 2.6 -0.8 0-1.5-0.2-2.2-0.8l-0.4 0.8H63.7V12.76zM83.5 3.26c0-1-0.4-1.8-1.1-2.3 -0.6-0.5-1.3-0.7-2.5-0.7H75.1v0.5c1.3 0.1 1.5 0.2 1.5 1.2v8.9c0 1-0.1 1.1-1.5 1.2v0.4h4.6c1.4 0 2.1-0.2 2.9-0.6 0.9-0.6 1.5-1.7 1.5-2.9 0-1-0.4-1.9-1.1-2.4 -0.4-0.3-0.8-0.5-1.5-0.6C82.8 5.46 83.5 4.56 83.5 3.26M78.1 0.86h1.6c1.5 0 2.2 0.8 2.2 2.5 0 0.8-0.2 1.5-0.6 1.9 -0.4 0.5-0.9 0.6-1.9 0.6H78.1V0.86zM79.9 6.36c1 0 1.5 0.2 1.9 0.6 0.4 0.4 0.7 1.2 0.7 2.1 0 1.8-0.9 2.9-2.6 2.9h-0.7c-1 0-1.1-0.1-1.1-1V6.36H79.9zM89.5 12.16c-1.7 0-2.4-1.3-2.4-4.2h5.5c0-2.8-1.2-4.3-3.4-4.3 -2.2 0-3.6 1.8-3.6 4.6 0 2.8 1.4 4.5 3.7 4.5 1.8 0 3-1.1 3.2-3h-0.7C91.6 11.26 90.8 12.16 89.5 12.16M87.1 7.26c0.2-2.1 0.9-3.2 2.1-3.2s1.8 1 1.9 3.2H87.1zM93.5 4.36v-0.3c1.1-0.1 1.7-0.3 2.4-0.6C96 3.86 96 4.36 96.1 5.06c0.7-1 1.4-1.4 2.5-1.4 1.1 0 2.1 0.6 2.4 1.5 0.2 0.4 0.3 1 0.3 1.7v4.4c0 0.8 0.2 0.9 1.3 1v0.4c-1-0.1-1.3-0.1-2-0.1 -0.7 0-1 0-2 0.1v-0.4c1 0 1.2-0.2 1.2-1v-4.5c0-1.6-0.5-2.2-1.7-2.2 -1.2 0-1.9 0.8-1.9 2.3v4.4c0 0.7 0.2 0.9 1.2 1v0.4c-1-0.1-1.3-0.1-2-0.1 -0.6 0-1 0-2 0.1v-0.4c1.1-0.1 1.3-0.2 1.3-1v-5.7 -0.3c0-0.8-0.1-0.9-1-0.9C93.7 4.36 93.6 4.36 93.5 4.36M103.3 12.56l5-8.2H106c-1.2 0-1.5 0.3-2.1 1.9h-0.4l0.4-2.4h6.3l-5 8.2h2.1c1.2 0 1.8-0.5 2.3-2.2h0.4l-0.5 2.6h-6.2V12.56z"></path></g><path fill="#FFFFFF" d="M12.9 20.04c1.6 0 2.1 0.1 2.8 0.4 1.1 0.6 1.7 1.9 1.7 3.4 0 1.6-0.7 2.9-1.8 3.4 -0.6 0.3-1.1 0.4-2.7 0.4H12v-7.7h0.9V20.04zM13.1 27.14c1.4 0 1.7-0.1 2.3-0.4 0.9-0.5 1.3-1.5 1.3-2.9 0-1.4-0.5-2.5-1.5-3 -0.5-0.2-0.8-0.3-2.2-0.3h-0.4v6.5h0.5V27.14L13.1 27.14zM18.8 23.64c0.1-1 0.8-1.5 1.9-1.5 0.9 0 1.5 0.3 1.7 0.9 0.1 0.3 0.1 0.5 0.1 1.2v2c0 1 0 1.1 0.1 1.5H22c-0.1-0.3-0.1-0.4-0.1-0.8 -0.3 0.6-0.9 0.9-1.6 0.9 -1 0-1.7-0.6-1.7-1.6 0-1.2 0.9-1.7 3.3-2.1v-0.3c0-0.9-0.3-1.2-1.2-1.2 -0.8 0-1.2 0.3-1.3 1h-0.6V23.64zM21.9 24.64c-2 0.4-2.7 0.8-2.7 1.6 0 0.6 0.4 1 1.1 1 0.6 0 1.1-0.3 1.3-0.7 0.2-0.3 0.2-0.7 0.2-1.3v-0.6H21.9zM27 23.74c-0.1-0.7-0.4-1.1-1.2-1.1 -0.7 0-1.1 0.4-1.1 0.9s0.3 0.7 1.3 1c0.9 0.3 1.2 0.4 1.5 0.7 0.2 0.2 0.3 0.6 0.3 1 0 1-0.7 1.7-1.9 1.7 -1.2 0-1.9-0.6-1.9-1.8h0.6c0.1 0.8 0.5 1.2 1.3 1.2 0.8 0 1.3-0.4 1.3-1.1 0-0.3-0.1-0.6-0.4-0.7 -0.2-0.1-0.2-0.1-1.2-0.5 -0.6-0.2-0.9-0.3-1.1-0.6 -0.2-0.2-0.3-0.6-0.3-0.9 0-0.9 0.7-1.5 1.8-1.5s1.7 0.6 1.8 1.6H27V23.74zM33.6 20.04c1.1 0 1.5 0 1.9 0.2 0.7 0.3 1.2 0.9 1.2 1.7 0 0.9-0.4 1.4-1.3 1.7 1.1 0.3 1.7 0.9 1.7 2 0 0.9-0.5 1.7-1.2 1.9 -0.5 0.2-0.9 0.2-2.2 0.2h-1.2v-7.7H33.6zM33.8 23.44c0.8 0 1.2-0.1 1.6-0.3 0.4-0.2 0.6-0.7 0.6-1.2 0-0.6-0.3-1-0.8-1.2 -0.3-0.1-0.6-0.1-1.4-0.1h-0.7v2.8H33.8L33.8 23.44zM33.9 27.14c1 0 1.4 0 1.8-0.2 0.4-0.2 0.7-0.7 0.7-1.4 0-0.7-0.4-1.2-1-1.4 -0.4-0.1-0.7-0.1-1.5-0.1H33.1v3.1L33.9 27.14 33.9 27.14zM38.9 25.04c0 1.5 0.6 2.3 1.7 2.3 0.6 0 1-0.3 1.3-0.9l0.6 0.1c-0.3 0.8-1 1.3-1.9 1.3 -1.4 0-2.3-1.1-2.3-2.8 0-1.8 0.9-2.9 2.2-2.9s2.1 1.1 2.1 2.7v0.2H38.9L38.9 25.04zM42 24.54c-0.1-1.2-0.6-1.9-1.5-1.9s-1.4 0.7-1.6 1.9H42zM46.9 23.74c-0.1-0.7-0.4-1.1-1.2-1.1 -0.7 0-1.1 0.4-1.1 0.9s0.3 0.7 1.3 1c0.9 0.3 1.2 0.4 1.5 0.7 0.2 0.2 0.3 0.6 0.3 1 0 1-0.7 1.7-1.9 1.7s-1.9-0.6-1.9-1.8h0.6c0.1 0.8 0.5 1.2 1.3 1.2s1.3-0.4 1.3-1.1c0-0.3-0.1-0.6-0.4-0.7 -0.2-0.1-0.2-0.1-1.2-0.5 -0.6-0.2-0.9-0.3-1.1-0.6 -0.2-0.2-0.3-0.6-0.3-0.9 0-0.9 0.7-1.5 1.8-1.5 1.1 0 1.7 0.6 1.8 1.6H46.9V23.74L46.9 23.74zM51.2 22.24v0.5h-1.4l-0.1 3v0.5 0.1c0 0.7 0.1 0.9 0.6 0.9 0.2 0 0.5-0.1 0.8-0.2v0.6c-0.3 0.1-0.5 0.1-0.9 0.1 -0.8 0-1.2-0.3-1.2-1.1 0-0.1 0-0.3 0-0.6v-0.4l0.1-2.9h-0.8v-0.5h0.8v-1.6H49.7v1.6h1.5V22.24zM52.5 25.04c0 1.5 0.6 2.3 1.7 2.3 0.6 0 1-0.3 1.3-0.9l0.6 0.1c-0.3 0.8-1 1.3-1.9 1.3 -1.4 0-2.3-1.1-2.3-2.8 0-1.8 0.9-2.9 2.2-2.9 1.3 0 2.1 1.1 2.1 2.7v0.2H52.5L52.5 25.04zM55.6 24.54c-0.1-1.2-0.6-1.9-1.5-1.9 -0.9 0-1.4 0.7-1.6 1.9H55.6zM64.9 24.94c0 1.7-0.9 2.9-2.3 2.9 -1.4 0-2.3-1.1-2.3-2.9 0-1.7 0.9-2.8 2.3-2.8C64 22.14 64.9 23.24 64.9 24.94zM61 24.94c0 1.4 0.7 2.3 1.7 2.3s1.7-1 1.7-2.3c0-1.4-0.7-2.3-1.7-2.3S61 23.64 61 24.94zM70.2 26.14c0 1 0 1.3 0.1 1.6h-0.6C69.6 27.54 69.6 27.34 69.6 27.14v-0.2c-0.4 0.6-0.8 0.9-1.5 0.9 -1.3 0-2.1-1.1-2.1-2.8 0-1.8 0.8-2.9 2.1-2.9 0.7 0 1.2 0.3 1.6 1v-3.1h0.6v6.1H70.2zM67.1 23.14c-0.3 0.4-0.5 1.1-0.5 1.9 0 0.7 0.2 1.4 0.5 1.8 0.2 0.3 0.6 0.5 1 0.5 0.9 0 1.5-0.9 1.5-2.3 0-1.4-0.6-2.3-1.5-2.3C67.7 22.64 67.3 22.84 67.1 23.14zM72.3 25.04c0 1.5 0.6 2.3 1.7 2.3 0.6 0 1-0.3 1.3-0.9l0.6 0.1c-0.4 0.8-1 1.3-2 1.3 -1.4 0-2.3-1.1-2.3-2.8 0-1.8 0.9-2.9 2.2-2.9s2.1 1.1 2.1 2.7v0.2H72.3L72.3 25.04zM75.3 24.54c-0.1-1.2-0.6-1.9-1.5-1.9 -0.9 0-1.4 0.7-1.6 1.9H75.3zM77.9 22.24c0.1 0.3 0.1 0.6 0.1 0.8 0 0.1 0 0.2 0 0.3 0.4-0.9 0.8-1.3 1.4-1.3 0.2 0 0.5 0.1 0.7 0.2v0.6c-0.4-0.2-0.5-0.2-0.7-0.2 -0.4 0-0.8 0.3-1.1 0.9 -0.2 0.4-0.3 0.9-0.3 1.7v2.4h-0.6v-3.5c0-1.2 0-1.3-0.1-1.9H77.9zM84 22.24c0.1 0.3 0.1 0.4 0.1 0.8 0.4-0.7 0.9-1 1.7-1s1.4 0.3 1.6 0.9c0.1 0.3 0.1 0.5 0.1 1.6v3.1H86.9v-3.2c0-0.9 0-1.1-0.2-1.4 -0.2-0.3-0.5-0.5-1-0.5 -1 0-1.6 0.7-1.6 1.9v3.1h-0.6v-3.6c0-1.3 0-1.3-0.1-1.8H84V22.24zM90 20.44c0 0.3-0.2 0.5-0.5 0.5s-0.5-0.2-0.5-0.5c0-0.3 0.2-0.5 0.5-0.5C89.7 19.94 90 20.14 90 20.44zM89.8 22.24v5.4h-0.7v-5.4H89.8zM94.9 24.04c-0.1-0.9-0.6-1.4-1.3-1.4 -1 0-1.6 0.9-1.6 2.3 0 1.4 0.7 2.3 1.7 2.3 0.8 0 1.3-0.5 1.3-1.4H95.6c-0.2 1.3-0.8 2-2 2 -1.4 0-2.3-1.1-2.3-2.8 0-1.7 0.9-2.9 2.3-2.9 1.1 0 1.8 0.7 1.9 1.9H94.9L94.9 24.04zM97.5 20.04v2.9c0.4-0.6 0.9-0.8 1.6-0.8 0.7 0 1.2 0.3 1.5 0.7 0.2 0.3 0.2 0.6 0.2 1.7v3.1h-0.6v-3.2c0-0.9 0-1.1-0.2-1.4 -0.2-0.3-0.5-0.5-1-0.5 -1 0-1.5 0.7-1.5 2v3.1h-0.6v-7.7h0.6V20.04zM104.7 22.24v0.5h-1.4l-0.1 3v0.5 0.1c0 0.7 0.1 0.9 0.6 0.9 0.2 0 0.5-0.1 0.8-0.2v0.6c-0.3 0.1-0.5 0.1-0.9 0.1 -0.8 0-1.2-0.3-1.2-1.1 0-0.1 0-0.3 0-0.6v-0.4l0.1-2.9h-0.8v-0.5h0.8v-1.6h0.6v1.6h1.5v0H104.7zM108.7 23.74c-0.1-0.7-0.4-1.1-1.2-1.1 -0.7 0-1.1 0.4-1.1 0.9s0.3 0.7 1.3 1c0.9 0.3 1.2 0.4 1.5 0.7 0.2 0.2 0.3 0.6 0.3 1 0 1-0.7 1.7-1.9 1.7 -1.2 0-1.9-0.6-1.9-1.8h0.6c0.1 0.8 0.5 1.2 1.3 1.2s1.3-0.4 1.3-1.1c0-0.3-0.1-0.6-0.4-0.7 -0.2-0.1-0.2-0.1-1.2-0.5 -0.6-0.2-0.9-0.3-1.1-0.6 -0.2-0.2-0.3-0.6-0.3-0.9 0-0.9 0.7-1.5 1.8-1.5s1.7 0.6 1.8 1.6h-0.8v0.1H108.7L108.7 23.74zM112 27.24c0 0.3-0.3 0.6-0.6 0.6 -0.3 0-0.6-0.3-0.6-0.6 0-0.3 0.3-0.6 0.6-0.6C111.7 26.64 112 26.94 112 27.24z"></path></svg>