<?xml version="1.0" encoding="utf-8"?>
<!-- Generator: Adobe Illustrator 24.0.2, SVG Export Plug-In . SVG Version: 6.00 Build 0)  -->
<svg version="1.1" id="Ebene_1" xmlns="http://www.w3.org/2000/svg" xmlns:xlink="http://www.w3.org/1999/xlink" x="0px" y="0px"
	 viewBox="0 0 112 28" style="enable-background:new 0 0 112 28;" xml:space="preserve">
<style type="text/css">
	.st0{fill:#FFFFFF;}
	.st1{display:none;fill:none;stroke:#FF0000;stroke-miterlimit:10;}
</style>
<image style="overflow:visible;" width="1367" height="113" xlink:href="482561F7.jpg"  transform="matrix(1 0 0 1 -7886 -7796)">
</image>
<title>mb_vans-2</title>
<rect x="70.8" y="17.2" class="st0" width="4.1" height="1"/>
<path class="st0" d="M2.5,11.4l-0.4,9.5v0.2c0,0.8,0.2,1,1.5,1.1v0.4c-0.6-0.1-1.2-0.1-1.8-0.1c-0.6,0-1.2,0-1.8,0.1v-0.4
	C1.3,22.1,1.5,22,1.5,21l0.4-9v-0.1c0-0.8-0.3-1-1.5-1.1v-0.5c0.5,0.1,1,0.1,1.5,0.1c0.6,0,1.1,0,1.7-0.1L7,19.6l3.5-9.3
	c0.6,0.1,1.2,0.1,1.8,0.1c0.5,0,1,0,1.5-0.1v0.5c-1.2,0.1-1.5,0.3-1.5,1.1V12l0.2,9c0,1,0.2,1.1,1.5,1.2v0.4
	c-0.8-0.1-1.5-0.1-2.3-0.1c-0.8,0-1.5,0-2.3,0.1v-0.4c1.2-0.1,1.5-0.3,1.5-1.1V21l-0.2-9.5l-3.1,8.1l-0.2,0.6l-0.3,0.7l-0.2,0.7
	l-0.2,0.6H6.4l-0.2-0.6l-0.3-0.7l-0.2-0.7l-0.2-0.7L2.5,11.4z M18.7,22.2c-1.7,0-2.4-1.3-2.4-4.2h5.5c0-2.8-1.2-4.3-3.4-4.3
	s-3.6,1.8-3.6,4.6s1.4,4.5,3.7,4.5c1.7,0.1,3.1-1.1,3.2-2.8c0-0.1,0-0.1,0-0.2H21C20.8,21.3,20,22.2,18.7,22.2 M16.3,17.3
	c0.2-2.1,0.9-3.2,2.1-3.2s1.8,1,1.9,3.2H16.3z M22.8,14.3V14c0.8-0.1,1.6-0.2,2.4-0.4c0.1,0.7,0.1,1,0.2,1.5v0.2
	c0.3-0.9,1.1-1.6,2.1-1.7c0.8-0.1,1.5,0.6,1.6,1.4c0,0,0,0.1,0,0.1c0,0.5-0.3,0.9-0.7,0.9c0,0,0,0-0.1,0c-0.4,0-0.8-0.3-0.8-0.6
	v-0.5c0-0.3-0.2-0.4-0.6-0.4c-1,0-1.6,1.2-1.6,3v3.8c0,0.8,0.2,0.9,1.3,1v0.4c-0.7-0.1-1.3-0.1-2-0.1c-0.7,0-1.4,0-2.1,0.1v-0.4
	c1.1-0.1,1.3-0.2,1.3-1v-6.1c0-0.8-0.1-0.9-1.1-0.9L22.8,14.3z M36.2,13.5v3h-0.4c-0.3-1.6-1-2.4-2.1-2.4c-1.4,0-2.2,1.5-2.2,4.1
	s0.7,3.9,2.1,3.9c1.1,0,1.8-0.8,2-2.4h0.8c-0.2,2-1.3,3-2.9,3c-2.1,0-3.6-1.8-3.6-4.5s1.5-4.6,3.6-4.6c0.7,0,1.4,0.3,1.9,0.8
	l0.5-0.9H36.2z M41.6,22.2c-1.7,0-2.4-1.3-2.4-4.2h5.5c0-2.8-1.2-4.3-3.4-4.3s-3.6,1.8-3.6,4.6s1.4,4.5,3.7,4.5
	c1.7,0.1,3.1-1.1,3.2-2.8c0-0.1,0-0.1,0-0.2h-0.7C43.7,21.3,42.9,22.2,41.6,22.2 M39.2,17.3c0.2-2.1,0.9-3.2,2.1-3.2s1.8,1,1.9,3.2
	H39.2z M53.2,20.7V10.1c-0.9,0.2-1.9,0.4-2.8,0.5v0.3c1.2,0,1.3,0.1,1.3,1.1v3.2c-0.7-1.1-1.2-1.4-2.2-1.4c-2,0-3.3,1.9-3.3,4.5
	s1.4,4.5,3.4,4.5c1,0,1.9-0.6,2.3-1.5c0.1,0.5,0.2,1,0.3,1.5c0.7-0.2,1.4-0.3,2.1-0.4h0.3v-0.3C53.3,21.9,53.2,21.8,53.2,20.7
	 M49.7,22.3c-1.3,0-2-1.4-2-4s0.6-4,2-4s2.1,1.4,2.1,4.1C51.7,20.9,51,22.3,49.7,22.3 M59.1,22.2c-1.7,0-2.4-1.3-2.4-4.2h5.5
	c0-2.8-1.2-4.3-3.4-4.3s-3.6,1.8-3.6,4.6s1.4,4.5,3.7,4.5c1.7,0.1,3.1-1.1,3.2-2.8c0-0.1,0-0.1,0-0.2h-0.7
	C61.2,21.3,60.4,22.2,59.1,22.2 M56.7,17.3c0.2-2.1,0.9-3.2,2.1-3.2s1.8,1,1.9,3.2H56.7z M63.7,22.8v-3.1h0.4
	c0.3,1.7,1.1,2.5,2.4,2.5c1,0.1,1.8-0.6,1.9-1.6c0,0,0-0.1,0-0.1c0-0.6-0.3-1-1.2-1.5l-0.7-0.3l-0.9-0.3c-1.3-0.6-1.8-1.1-1.8-2.2
	c0-1.5,1.1-2.4,2.8-2.4c0.7,0,1.3,0.2,1.9,0.6l0.3-0.8h0.3v2.8h-0.4c-0.2-1.5-0.8-2.2-1.9-2.2c-0.9-0.1-1.6,0.6-1.7,1.5c0,0,0,0,0,0
	c0,0.7,0.3,1,1.9,1.7l0.8,0.3c1.4,0.6,1.9,1.2,1.9,2.3c0,1.5-1.3,2.7-2.8,2.6c-0.1,0-0.1,0-0.2,0c-0.8,0-1.6-0.3-2.2-0.8l-0.4,0.8
	h-0.4L63.7,22.8z M83.5,13.3c0-0.9-0.4-1.7-1.1-2.3c-0.7-0.5-1.6-0.8-2.5-0.7h-4.8v0.5c1.3,0.1,1.5,0.2,1.5,1.2v8.9
	c0,1-0.1,1.1-1.5,1.2v0.4h4.6c1,0.1,2-0.1,2.9-0.6c0.9-0.7,1.5-1.7,1.5-2.9c0-0.9-0.4-1.8-1.1-2.4c-0.4-0.3-1-0.5-1.5-0.6
	C82.7,15.7,83.5,14.5,83.5,13.3 M78.1,10.9h1.6c1.5,0,2.2,0.8,2.2,2.5c0,0.7-0.2,1.4-0.6,1.9c-0.4,0.5-0.9,0.6-1.9,0.6h-1.3V10.9z
	 M79.9,16.4c0.7-0.1,1.4,0.1,1.9,0.6c0.5,0.6,0.7,1.3,0.7,2.1c0,1.8-0.9,2.9-2.6,2.9h-0.7c-1,0-1.1-0.1-1.1-1v-4.6H79.9z M89.5,22.2
	c-1.7,0-2.4-1.3-2.4-4.2h5.5c-0.1-2.8-1.2-4.3-3.4-4.3s-3.6,1.8-3.6,4.6s1.4,4.5,3.7,4.5c1.7,0.1,3.1-1.1,3.2-2.8c0-0.1,0-0.1,0-0.2
	h-0.7C91.6,21.3,90.8,22.2,89.5,22.2 M87.1,17.3c0.2-2.1,0.9-3.2,2.1-3.2s1.8,1,1.9,3.2H87.1z M93.5,14.4v-0.3
	c0.8-0.1,1.6-0.3,2.4-0.6c0.1,0.4,0.1,0.9,0.2,1.6c0.5-0.9,1.5-1.4,2.5-1.4c1-0.1,2,0.5,2.4,1.5c0.2,0.5,0.3,1.1,0.3,1.7v4.4
	c0,0.8,0.2,0.9,1.3,1v0.4c-1.3-0.1-2.7-0.1-4,0v-0.4c1,0,1.2-0.2,1.2-1v-4.5c0-1.6-0.5-2.2-1.7-2.2s-1.9,0.8-1.9,2.3v4.4
	c0,0.7,0.2,0.9,1.2,1v0.4c-0.7-0.1-1.3-0.1-2-0.1c-0.7,0-1.3,0-2,0.1v-0.4c1.1-0.1,1.3-0.2,1.3-1v-6c0-0.8-0.1-0.9-1-0.9H93.5
	 M103.3,22.6l5-8.2H106c-1.2,0-1.5,0.3-2.1,1.9h-0.4l0.4-2.4h6.3l-5,8.2h2.1c1.2,0,1.8-0.5,2.3-2.2h0.4l-0.5,2.6h-6.2L103.3,22.6z"
	/>
<line class="st1" x1="-117.4" y1="25.3" x2="315.7" y2="25.3"/>
</svg>
