<?xml version="1.0" encoding="UTF-8" standalone="no"?>
<svg width="14px" height="15px" viewBox="0 0 14 15" version="1.1" xmlns="http://www.w3.org/2000/svg" xmlns:xlink="http://www.w3.org/1999/xlink" xmlns:sketch="http://www.bohemiancoding.com/sketch/ns">
    <!-- Generator: Sketch 3.4.2 (15857) - http://www.bohemiancoding.com/sketch -->
    <title>ICON - Info</title>
    <desc>Created with Sketch.</desc>
    <defs></defs>
    <g id="Website" stroke="none" stroke-width="1" fill="none" fill-rule="evenodd" sketch:type="MSPage">
        <g id="mb_versicherung_disc_desktop" sketch:type="MSArtboardGroup" transform="translate(-1006.000000, -26.000000)">
            <g id="ICON---Info" sketch:type="MSLayerGroup" transform="translate(1006.000000, 26.000000)">
                <path d="M8.7260262,11.4606443 L5.0063102,11.4606443 L5.0063102,10.2721868 L6.34960031,10.2721868 L6.34960031,7.45182181 L5.08014375,7.45182181 L5.08014375,6.27927347 L7.76659048,6.27927347 L7.76659048,10.2721868 L8.7260262,10.2721868 L8.7260262,11.4606443 L8.7260262,11.4606443 Z M5.5376982,3.7758018 C5.5376982,3.03108097 6.0690862,2.4606443 6.76282792,2.4606443 C7.45656964,2.4606443 7.98795764,3.03108097 7.98795764,3.7758018 C7.98795764,4.48884764 7.45656964,5.0909593 6.76282792,5.0909593 C6.0690862,5.0909593 5.5376982,4.48884764 5.5376982,3.7758018 L5.5376982,3.7758018 Z" id="information_credits" fill="#D1D1D1" sketch:type="MSShapeGroup"></path>
                <rect id="Rectangle-34" stroke="#D1D1D1" sketch:type="MSShapeGroup" x="0" y="0" width="13.4801258" height="14.4707031"></rect>
            </g>
        </g>
    </g>
</svg>