<?xml version="1.0" encoding="UTF-8" standalone="no"?>
<svg width="21px" height="30px" viewBox="0 0 21 30" version="1.1" xmlns="http://www.w3.org/2000/svg" xmlns:xlink="http://www.w3.org/1999/xlink" xmlns:sketch="http://www.bohemiancoding.com/sketch/ns">
    <!-- Generator: Sketch 3.4.2 (15857) - http://www.bohemiancoding.com/sketch -->
    <title>ICON - Phone</title>
    <desc>Created with Sketch.</desc>
    <defs></defs>
    <g id="Website" stroke="none" stroke-width="1" fill="none" fill-rule="evenodd" sketch:type="MSPage">
        <g id="mb_versicherung_disc_desktop" sketch:type="MSArtboardGroup" transform="translate(-262.000000, -3503.000000)" fill="#FFFFFF">
            <g id="Kontakt-Service-Copy" sketch:type="MSLayerGroup" transform="translate(128.000000, 3253.000000)">
                <g id="ServiceCenter" transform="translate(121.000000, 50.000000)" sketch:type="MSShapeGroup">
                    <g transform="translate(2.000000, 121.000000)" id="phone">
                        <g transform="translate(11.000000, 75.000000)">
                            <g id="ICON---Phone" transform="translate(0.000000, 4.000000)">
                                <path d="M17.4203077,20.3558108 C18.6702115,20.3558108 20.9026731,23.9862162 20.9026731,26.2268919 L20.8578462,26.7198649 L20.8578462,26.8990541 L16.3933269,29.5435135 C16.17,29.6781081 15.9466731,29.7227027 15.72375,29.7227027 C14.2056923,29.7227027 12.1965577,28.1987838 9.65192308,25.1063514 C7.15171154,22.0139189 4.91925,18.4731081 2.99976923,14.4843243 C1.08028846,10.4955405 0.0977307692,7.35810811 0.0977307692,5.07243243 C0.0977307692,3.95189189 0.365480769,3.27972973 0.901384615,2.96594595 L5.36590385,0.276891892 C5.63365385,0.366486486 5.99105769,0.545675676 6.48213462,0.859459459 C7.19653846,1.26283784 7.82169231,1.935 8.35719231,2.78675676 C9.02676923,3.99689189 9.38417308,5.02783784 9.38417308,5.87918919 C9.38417308,6.28256757 9.29492308,6.50675676 9.07159615,6.64094595 L5.99105769,8.47864865 C6.08030769,9.15081081 6.25880769,9.95756757 6.48213462,10.8989189 C7.01803846,12.8262162 7.73203846,14.6189189 8.66976923,16.2324324 C9.6075,17.8905405 10.8129808,19.3698649 12.1969615,20.7141892 C12.6880385,21.1625676 13.2683654,21.7001351 14.0275962,22.3277027 L17.1529615,20.4004054 C17.1969808,20.3558108 17.2862308,20.3558108 17.4203077,20.3558108 L17.4203077,20.3558108 L17.4203077,20.3558108 Z" id="Shape"></path>
                            </g>
                        </g>
                    </g>
                </g>
            </g>
        </g>
    </g>
</svg>