<?xml version="1.0" encoding="UTF-8" standalone="no"?>
<svg width="42px" height="39px" viewBox="0 0 42 39" version="1.1" xmlns="http://www.w3.org/2000/svg" xmlns:xlink="http://www.w3.org/1999/xlink" xmlns:sketch="http://www.bohemiancoding.com/sketch/ns">
    <!-- Generator: Sketch 3.4.2 (15857) - http://www.bohemiancoding.com/sketch -->
    <title>ICON - Zitat</title>
    <desc>Created with Sketch.</desc>
    <defs></defs>
    <g id="Website" stroke="none" stroke-width="1" fill="none" fill-rule="evenodd" sketch:type="MSPage">
        <g id="mb_versicherung_disc_desktop" sketch:type="MSArtboardGroup" transform="translate(-262.000000, -4481.000000)" fill="#4A4A4A">
            <g id="Unternehmen" sketch:type="MSLayerGroup" transform="translate(128.000000, 4283.000000)">
                <g id="Rectangle-47-+-Wort-des-VVS" transform="translate(134.000000, 198.000000)" sketch:type="MSShapeGroup">
                    <g id="Wort-des-VVS">
                        <path d="M1.2890625,16.8383789 L1.2890625,0 L16.8383789,0 L16.8383789,13.293457 C16.8383789,20.4907586 16.0058677,25.6738123 14.3408203,28.8427734 C12.0312385,33.1933811 8.43264163,36.4697156 3.54492188,38.671875 L0,32.9516602 C2.90040513,31.7700136 5.06224874,29.9035772 6.4855957,27.3522949 C7.90894266,24.8010126 8.70117107,21.296409 8.86230469,16.8383789 L1.2890625,16.8383789 Z M26.2646484,16.8383789 L26.2646484,0 L41.8139648,0 L41.8139648,13.293457 C41.8139648,20.4907586 40.9814536,25.6738123 39.3164062,28.8427734 C37.0068244,33.1933811 33.4082276,36.4697156 28.5205078,38.671875 L24.9755859,32.9516602 C27.8759911,31.7700136 30.0378347,29.9035772 31.4611816,27.3522949 C32.8845286,24.8010126 33.676757,21.296409 33.8378906,16.8383789 L26.2646484,16.8383789 Z" id="ICON---Zitat"></path>
                    </g>
                </g>
            </g>
        </g>
    </g>
</svg>